<?xml version="1.0" encoding="utf-8"?>
<!-- Generator: Adobe Illustrator 22.1.0, SVG Export Plug-In . SVG Version: 6.00 Build 0)  -->
<svg class="design__rollImage" version="1.1" xmlns="http://www.w3.org/2000/svg" xmlns:xlink="http://www.w3.org/1999/xlink" x="0px" y="0px"
	 viewBox="0 0 197.8 129.2" style="enable-background:new 0 0 197.8 129.2;" xml:space="preserve">
<style type="text/css">
	.st0{clip-path:url(#SVGID_2_);fill:#FDE2AC;}
	.st1{clip-path:url(#SVGID_2_);fill:#FDE1AB;}
	.st2{clip-path:url(#SVGID_2_);fill:#FDE0AA;}
	.st3{clip-path:url(#SVGID_2_);fill:#FDE0A9;}
	.st4{clip-path:url(#SVGID_2_);fill:#FDDFA8;}
	.st5{clip-path:url(#SVGID_2_);fill:#FDDEA7;}
	.st6{clip-path:url(#SVGID_2_);fill:#FDDDA6;}
	.st7{clip-path:url(#SVGID_2_);fill:#FCDDA5;}
	.st8{clip-path:url(#SVGID_2_);fill:#FCDCA4;}
	.st9{clip-path:url(#SVGID_2_);fill:#FCDBA3;}
	.st10{clip-path:url(#SVGID_2_);fill:#FCDAA2;}
	.st11{clip-path:url(#SVGID_2_);fill:#FCDAA1;}
	.st12{clip-path:url(#SVGID_2_);fill:#FCD9A0;}
	.st13{clip-path:url(#SVGID_2_);fill:#FCD89F;}
	.st14{clip-path:url(#SVGID_2_);fill:#FCD79E;}
	.st15{clip-path:url(#SVGID_2_);fill:#FCD79D;}
	.st16{clip-path:url(#SVGID_2_);fill:#FCD69C;}
	.st17{clip-path:url(#SVGID_2_);fill:#FCD59B;}
	.st18{clip-path:url(#SVGID_2_);fill:#FCD49A;}
	.st19{clip-path:url(#SVGID_2_);fill:#FCD499;}
	.st20{clip-path:url(#SVGID_2_);fill:#FBD398;}
	.st21{clip-path:url(#SVGID_2_);fill:#FBD297;}
	.st22{clip-path:url(#SVGID_2_);fill:#FBD196;}
	.st23{clip-path:url(#SVGID_2_);fill:#FBD195;}
	.st24{clip-path:url(#SVGID_2_);fill:#FBD094;}
	.st25{clip-path:url(#SVGID_2_);fill:#FBCF93;}
	.st26{clip-path:url(#SVGID_2_);fill:#FBCE92;}
	.st27{clip-path:url(#SVGID_2_);fill:#FBCE91;}
	.st28{clip-path:url(#SVGID_2_);fill:#FBCD90;}
	.st29{clip-path:url(#SVGID_2_);fill:#FBCC8F;}
	.st30{clip-path:url(#SVGID_2_);fill:#FBCB8E;}
	.st31{clip-path:url(#SVGID_2_);fill:#FBCB8D;}
	.st32{clip-path:url(#SVGID_2_);fill:#FBCA8C;}
	.st33{clip-path:url(#SVGID_2_);fill:#FAC98B;}
	.st34{clip-path:url(#SVGID_2_);fill:#FAC88A;}
	.st35{clip-path:url(#SVGID_2_);fill:#FAC889;}
	.st36{clip-path:url(#SVGID_2_);fill:#FAC788;}
	.st37{clip-path:url(#SVGID_2_);fill:#FAC687;}
	.st38{clip-path:url(#SVGID_2_);fill:#FAC586;}
	.st39{clip-path:url(#SVGID_2_);fill:#FAC585;}
	.st40{clip-path:url(#SVGID_2_);fill:#FAC483;}
	.st41{clip-path:url(#SVGID_2_);fill:#FAC382;}
	.st42{clip-path:url(#SVGID_2_);fill:#FAC281;}
	.st43{clip-path:url(#SVGID_2_);fill:#FAC180;}
	.st44{clip-path:url(#SVGID_2_);fill:#FAC17F;}
	.st45{clip-path:url(#SVGID_2_);fill:#FAC07E;}
	.st46{clip-path:url(#SVGID_2_);fill:#F9BF7D;}
	.st47{clip-path:url(#SVGID_2_);fill:#F9BE7C;}
	.st48{clip-path:url(#SVGID_2_);fill:#F9BE7B;}
	.st49{clip-path:url(#SVGID_2_);fill:#F9BD7A;}
	.st50{clip-path:url(#SVGID_2_);fill:#F9BC79;}
	.st51{clip-path:url(#SVGID_2_);fill:#F9BB78;}
	.st52{clip-path:url(#SVGID_2_);fill:#F9BB77;}
	.st53{clip-path:url(#SVGID_2_);fill:#F9BA76;}
	.st54{clip-path:url(#SVGID_2_);fill:#F9B975;}
	.st55{clip-path:url(#SVGID_2_);fill:#F9B874;}
	.st56{clip-path:url(#SVGID_2_);fill:#F9B873;}
	.st57{clip-path:url(#SVGID_2_);fill:#F9B772;}
	.st58{clip-path:url(#SVGID_2_);fill:#F9B671;}
	.st59{clip-path:url(#SVGID_2_);fill:#F8B570;}
	.st60{clip-path:url(#SVGID_2_);fill:#F8B56F;}
	.st61{clip-path:url(#SVGID_2_);fill:#F8B46E;}
	.st62{clip-path:url(#SVGID_2_);fill:#F8B36D;}
	.st63{clip-path:url(#SVGID_2_);fill:#F8B26C;}
	.st64{clip-path:url(#SVGID_2_);fill:#F8B26B;}
	.st65{clip-path:url(#SVGID_2_);fill:#F8B16A;}
	.st66{clip-path:url(#SVGID_2_);fill:#F8B069;}
	.st67{clip-path:url(#SVGID_2_);fill:#F8AF68;}
	.st68{clip-path:url(#SVGID_2_);fill:#F8AF67;}
	.st69{clip-path:url(#SVGID_2_);fill:#F8AE66;}
	.st70{clip-path:url(#SVGID_2_);fill:#F8AD65;}
	.st71{clip-path:url(#SVGID_2_);fill:#F8AC64;}
	.st72{clip-path:url(#SVGID_2_);fill:#F7AC63;}
	.st73{clip-path:url(#SVGID_2_);fill:#F7AB62;}
	.st74{clip-path:url(#SVGID_2_);fill:#F7AA61;}
	.st75{clip-path:url(#SVGID_2_);fill:#F7A960;}
	.st76{clip-path:url(#SVGID_2_);fill:#F7A95F;}
	.st77{clip-path:url(#SVGID_2_);fill:#F7A85E;}
	.st78{clip-path:url(#SVGID_2_);fill:#F7A75D;}
</style>
<g>
	<defs>
		<path id="SVGID_1_" d="M29.7,17c-7.4,5.5-17.9,13.4-24.3,27.7C3,50-1.2,59.5,0.3,70.7c2.4,17.4,17,27.9,27.7,35.6
			c28.1,20.2,57.9,22.3,65,22.6c10.2,0.5,50.1,2.4,80.3-24.9c7.4-6.6,26-23.5,24.3-45.8c-0.9-11.6-6.9-19.9-8.5-22.1
			c-5-6.6-11.6-11-36.4-19.6C132.9,9.7,123,6.3,110.1,4C88.7,0.2,72-2.8,52.7,4.2C41.7,8.1,33.9,13.9,29.7,17z"/>
	</defs>
	<clipPath id="SVGID_2_">
		<use xlink:href="#SVGID_1_"  style="overflow:visible;"/>
	</clipPath>
	<rect x="-1.2" y="-2.8" class="st0" width="200.6" height="134.2"/>
	<path class="st0" d="M27.3-3.9h173.2v91.3h3.5c-5.3,4.4-10.8,8.5-16.5,12.4c-22.9,15.5-49.2,26.7-78.1,32.4
		c-28.8,5.7-57.5,5.2-84.5-0.4c-6.8-1.4-13.4-3.2-20-5.2c-3.3-1-6.5-2.1-9.7-3.3h2.5V-3.9H27.3z"/>
	<path class="st1" d="M27.2-3.9h173.3v91.1h3.4c-5.3,4.4-10.8,8.5-16.5,12.4c-22.9,15.5-49.2,26.7-78,32.4
		c-28.8,5.7-57.4,5.2-84.5-0.4c-6.8-1.4-13.4-3.1-20-5.2c-3.3-1-6.5-2.1-9.7-3.3h2.5V-3.9H27.2z"/>
	<path class="st2" d="M27.2-3.9h173.3V87h3.2c-5.3,4.4-10.8,8.5-16.5,12.4c-22.9,15.5-49.2,26.7-78,32.4
		c-28.8,5.7-57.4,5.2-84.4-0.4c-6.8-1.4-13.4-3.1-20-5.2c-3.3-1-6.5-2.1-9.7-3.3h2.5V-3.9H27.2z"/>
	<path class="st3" d="M27.1-3.9h173.4v90.6h3.1c-5.3,4.4-10.8,8.5-16.5,12.4c-22.9,15.5-49.1,26.7-77.9,32.3
		c-28.8,5.7-57.3,5.2-84.4-0.4c-6.8-1.4-13.4-3.1-19.9-5.2c-3.3-1-6.5-2.1-9.7-3.3h2.5V-3.9H27.1z"/>
	<path class="st4" d="M27.1-3.9h173.4v90.4h2.9c-5.3,4.4-10.8,8.5-16.5,12.4c-22.8,15.4-49.1,26.7-77.9,32.3
		c-28.8,5.7-57.3,5.2-84.3-0.4c-6.7-1.4-13.4-3.1-19.9-5.2c-3.3-1-6.5-2.1-9.7-3.3h2.5V-3.9H27.1z"/>
	<path class="st5" d="M27.1-3.9h173.4v90.2h2.8c-5.3,4.4-10.8,8.5-16.5,12.3c-22.8,15.4-49.1,26.6-77.8,32.3
		c-28.7,5.7-57.3,5.2-84.2-0.4c-6.7-1.4-13.4-3.1-19.9-5.2c-3.3-1-6.5-2.1-9.7-3.3h2.6V-3.9H27.1z"/>
	<path class="st6" d="M27-3.9h173.5v90h2.6c-5.3,4.4-10.8,8.5-16.5,12.3c-22.8,15.4-49,26.6-77.8,32.3c-28.7,5.7-57.2,5.2-84.2-0.4
		c-6.7-1.4-13.4-3.1-19.9-5.2c-3.3-1-6.5-2.1-9.7-3.3h2.6V-3.9H27z"/>
	<path class="st7" d="M27-3.9h173.5v89.7h2.5c-5.3,4.4-10.8,8.5-16.5,12.3c-22.8,15.4-49,26.6-77.7,32.3
		c-28.7,5.6-57.2,5.2-84.1-0.4c-6.7-1.4-13.4-3.1-19.9-5.2c-3.3-1-6.5-2.1-9.7-3.3h2.6V-3.9H27z"/>
	<path class="st8" d="M26.9-3.9h173.6v89.5h2.3c-5.3,4.4-10.7,8.5-16.4,12.3c-22.8,15.4-49,26.6-77.7,32.2
		c-28.7,5.6-57.2,5.2-84.1-0.4c-6.7-1.4-13.4-3.1-19.9-5.2c-3.3-1-6.5-2.1-9.7-3.3h2.6V-3.9H26.9z"/>
	<path class="st9" d="M26.9-3.9h173.6v89.3h2.2c-5.3,4.4-10.7,8.5-16.4,12.3c-22.8,15.4-48.9,26.6-77.6,32.2s-57.1,5.2-84-0.4
		c-6.7-1.4-13.4-3.1-19.9-5.2c-3.3-1-6.5-2.1-9.7-3.3h2.6V-3.9H26.9z"/>
	<path class="st10" d="M26.9-3.9h173.6v89.1h2c-5.3,4.4-10.7,8.5-16.4,12.3c-22.8,15.4-48.9,26.6-77.6,32.2
		c-28.7,5.6-57.1,5.2-84-0.4c-6.7-1.4-13.3-3.1-19.9-5.2c-3.3-1-6.5-2.1-9.7-3.3h2.7V-3.9H26.9z"/>
	<path class="st11" d="M26.8-3.9h173.7v88.8h1.8c-5.2,4.3-10.7,8.5-16.4,12.3c-22.7,15.4-48.9,26.5-77.5,32.2
		c-28.6,5.6-57.1,5.2-83.9-0.4c-6.7-1.4-13.3-3.1-19.8-5.2c-3.3-1-6.5-2.1-9.7-3.3h2.7V-3.9H26.8z"/>
	<path class="st12" d="M26.8-3.9h173.7v88.6h1.7c-5.2,4.3-10.7,8.5-16.4,12.3c-22.7,15.4-48.8,26.5-77.5,32.2
		c-28.6,5.6-57,5.2-83.9-0.4c-6.7-1.4-13.3-3.1-19.8-5.2c-3.3-1-6.5-2.1-9.7-3.3h2.7V-3.9H26.8z"/>
	<path class="st13" d="M26.7-3.9h173.8v88.4h1.5c-5.2,4.3-10.7,8.4-16.4,12.3c-22.7,15.4-48.8,26.5-77.4,32.1s-57,5.2-83.8-0.4
		c-6.7-1.4-13.3-3.1-19.8-5.2c-3.2-1-6.5-2.1-9.7-3.3h2.7v-124H26.7z"/>
	<path class="st14" d="M26.7-3.9h173.8v88.2h1.4c-5.2,4.3-10.7,8.4-16.4,12.3c-22.7,15.3-48.8,26.5-77.4,32.1
		c-28.6,5.6-56.9,5.2-83.8-0.4c-6.7-1.4-13.3-3.1-19.8-5.2c-3.2-1-6.5-2.1-9.6-3.3h2.7V-3.9H26.7z"/>
	<path class="st15" d="M26.7-3.9h173.9v87.9h1.2c-5.2,4.3-10.7,8.4-16.4,12.3c-22.7,15.3-48.8,26.5-77.3,32.1
		c-28.6,5.6-56.9,5.2-83.7-0.4c-6.7-1.4-13.3-3.1-19.8-5.2c-3.2-1-6.5-2.1-9.6-3.3h2.8V-3.9H26.7z"/>
	<path class="st16" d="M26.6-3.9h173.9v87.7h1.1c-5.2,4.3-10.7,8.4-16.4,12.3c-22.7,15.3-48.7,26.5-77.3,32.1s-56.9,5.2-83.7-0.4
		c-6.7-1.4-13.3-3.1-19.8-5.1c-3.2-1-6.5-2.1-9.6-3.3h2.8V-3.9H26.6z"/>
	<path class="st17" d="M26.6-3.9h173.9v87.5h0.9c-5.2,4.3-10.7,8.4-16.3,12.3c-22.7,15.3-48.7,26.4-77.2,32.1s-56.8,5.2-83.6-0.4
		c-6.7-1.4-13.3-3.1-19.8-5.1c-3.2-1-6.5-2.1-9.6-3.3h2.8v-123H26.6z"/>
	<path class="st18" d="M26.5-3.9h174v87.3h0.8c-5.2,4.3-10.7,8.4-16.3,12.2c-22.6,15.3-48.7,26.4-77.2,32
		c-28.5,5.6-56.8,5.2-83.5-0.4c-6.7-1.4-13.3-3.1-19.8-5.1c-3.2-1-6.4-2.1-9.6-3.3h2.8V-3.9H26.5z"/>
	<path class="st19" d="M26.5-3.9h174v87h0.6c-5.2,4.3-10.7,8.4-16.3,12.2c-22.6,15.3-48.6,26.4-77.1,32s-56.8,5.2-83.5-0.4
		c-6.7-1.4-13.3-3.1-19.7-5.1c-3.2-1-6.4-2.1-9.6-3.3h2.8V-3.9H26.5z"/>
	<path class="st20" d="M26.5-3.9h174.1v86.8h0.5c-5.2,4.3-10.7,8.4-16.3,12.2c-22.6,15.3-48.6,26.4-77.1,32s-56.7,5.2-83.4-0.4
		c-6.7-1.4-13.3-3.1-19.7-5.1c-3.2-1-6.4-2.1-9.6-3.3h2.9V-3.9H26.5z"/>
	<path class="st21" d="M26.4-3.9h174.1v86.6h0.3c-5.2,4.3-10.7,8.4-16.3,12.2c-22.6,15.3-48.6,26.4-77,32
		c-28.4,5.6-56.7,5.2-83.4-0.4c-6.7-1.4-13.3-3.1-19.7-5.1c-3.2-1-6.4-2.1-9.6-3.3h2.9v-122H26.4z"/>
	<path class="st22" d="M26.4-3.9h174.1v86.4h0.2c-5.2,4.3-10.6,8.4-16.3,12.2c-22.6,15.3-48.5,26.4-77,32
		c-28.4,5.6-56.6,5.2-83.3-0.4c-6.7-1.4-13.2-3.1-19.7-5.1c-3.2-1-6.4-2.1-9.6-3.3h2.9V-3.9H26.4z"/>
	<path class="st23" d="M26.3-3.9h174.2v86.1h0c-5.2,4.3-10.6,8.4-16.3,12.2c-22.6,15.3-48.5,26.3-76.9,31.9S50.7,131.6,24,126
		c-6.7-1.4-13.2-3.1-19.7-5.1c-3.2-1-6.4-2.1-9.6-3.3h2.9V-3.9H26.3z"/>
	<path class="st24" d="M26.3-3.9h174.2v79.3h7.5c-2.5,2.3-5,4.5-7.6,6.6c-5.2,4.3-10.6,8.4-16.3,12.2
		c-22.6,15.2-48.5,26.3-76.9,31.9c-28.4,5.6-56.6,5.2-83.2-0.4c-6.7-1.4-13.2-3.1-19.7-5.1c-3.2-1-6.4-2.1-9.6-3.3h2.9V-3.9H26.3z"
		/>
	<path class="st25" d="M26.2-3.9h174.3v79.1h7.3c-2.5,2.3-5,4.5-7.6,6.6C195,86.1,189.6,90.2,184,94c-22.5,15.2-48.4,26.3-76.8,31.9
		c-28.4,5.6-56.5,5.2-83.2-0.4c-6.7-1.4-13.2-3.1-19.7-5.1c-3.2-1-6.4-2.1-9.6-3.3h3v-121H26.2z"/>
	<path class="st26" d="M26.2-3.9h174.3V75h7.2c-2.5,2.3-5,4.5-7.6,6.6c-5.2,4.3-10.6,8.4-16.3,12.2c-22.5,15.2-48.4,26.3-76.8,31.9
		s-56.5,5.1-83.1-0.4c-6.7-1.4-13.2-3.1-19.7-5.1c-3.2-1-6.4-2.1-9.6-3.3h3V-3.9H26.2z"/>
	<path class="st27" d="M26.2-3.9h174.3v78.6h7c-2.5,2.3-5,4.5-7.6,6.6c-5.2,4.3-10.6,8.4-16.2,12.2c-22.5,15.2-48.4,26.3-76.7,31.9
		s-56.5,5.1-83.1-0.4c-6.6-1.4-13.2-3.1-19.6-5.1c-3.2-1-6.4-2.1-9.6-3.3h3V-3.9H26.2z"/>
	<path class="st28" d="M26.1-3.9h174.4v78.4h6.9c-2.5,2.3-5,4.5-7.6,6.6c-5.2,4.3-10.6,8.4-16.2,12.2
		c-22.5,15.2-48.3,26.3-76.7,31.8c-28.3,5.6-56.4,5.1-83-0.4c-6.6-1.4-13.2-3.1-19.6-5.1c-3.2-1-6.4-2.1-9.6-3.2h3V-3.9H26.1z"/>
	<path class="st29" d="M26.1-3.9h174.4v78.2h6.7c-2.5,2.3-5,4.5-7.6,6.6c-5.2,4.3-10.6,8.4-16.2,12.2
		c-22.5,15.2-48.3,26.2-76.6,31.8s-56.4,5.1-83-0.4c-6.6-1.4-13.2-3.1-19.6-5.1c-3.2-1-6.4-2.1-9.6-3.2h3v-120H26.1z"/>
	<path class="st30" d="M26-3.9h174.5v78h6.6c-2.5,2.3-5,4.5-7.6,6.6c-5.2,4.3-10.6,8.4-16.2,12.2c-22.5,15.2-48.3,26.2-76.6,31.8
		s-56.4,5.1-82.9-0.4c-6.6-1.4-13.2-3.1-19.6-5.1c-3.2-1-6.4-2.1-9.5-3.2h3.1V-3.9H26z"/>
	<path class="st31" d="M26-3.9h174.5v77.7h6.4c-2.5,2.3-5,4.5-7.6,6.6c-5.2,4.3-10.6,8.3-16.2,12.1c-22.5,15.2-48.3,26.2-76.5,31.8
		c-28.3,5.6-56.3,5.1-82.9-0.4c-6.6-1.4-13.2-3.1-19.6-5.1c-3.2-1-6.4-2.1-9.5-3.2h3.1V-3.9H26z"/>
	<path class="st32" d="M26-3.9h174.5v77.5h6.2c-2.5,2.3-5,4.5-7.6,6.6c-5.2,4.3-10.6,8.3-16.2,12.1c-22.4,15.2-48.2,26.2-76.5,31.7
		c-28.2,5.6-56.3,5.1-82.8-0.4c-6.6-1.4-13.2-3.1-19.6-5.1c-3.2-1-6.4-2.1-9.5-3.2h3.1V-3.9H26z"/>
	<path class="st33" d="M25.9-3.9h174.6v77.3h6.1c-2.5,2.3-5,4.5-7.6,6.6c-5.2,4.3-10.6,8.3-16.2,12.1
		c-22.4,15.2-48.2,26.2-76.4,31.7s-56.2,5.1-82.7-0.4c-6.6-1.4-13.2-3.1-19.6-5.1c-3.2-1-6.4-2.1-9.5-3.2h3.1v-119H25.9z"/>
	<path class="st34" d="M25.9-3.9h174.6v77.1h5.9c-2.5,2.3-5,4.5-7.6,6.6c-5.2,4.3-10.6,8.3-16.2,12.1
		c-22.4,15.1-48.2,26.2-76.4,31.7c-28.2,5.6-56.2,5.1-82.7-0.4c-6.6-1.4-13.1-3.1-19.6-5.1c-3.2-1-6.4-2.1-9.5-3.2h3.1V-3.9H25.9z"
		/>
	<path class="st35" d="M25.8-3.9h174.7V73h5.8c-2.5,2.3-5,4.5-7.6,6.6c-5.2,4.3-10.6,8.3-16.2,12.1c-22.4,15.1-48.1,26.1-76.3,31.7
		C78,128.9,50,128.5,23.6,123c-6.6-1.4-13.1-3.1-19.5-5.1c-3.2-1-6.4-2.1-9.5-3.2h3.2V-3.9H25.8z"/>
	<path class="st36" d="M25.8-3.9h174.7v76.6h5.6c-2.5,2.3-5,4.5-7.6,6.6c-5.2,4.3-10.6,8.3-16.1,12.1
		c-22.4,15.1-48.1,26.1-76.3,31.7s-56.1,5.1-82.6-0.4c-6.6-1.4-13.1-3.1-19.5-5.1c-3.2-1-6.4-2.1-9.5-3.2h3.2V-3.9H25.8z"/>
	<path class="st37" d="M25.8-3.9h174.7v76.4h5.4c-2.5,2.3-5,4.5-7.6,6.6c-5.2,4.3-10.5,8.3-16.1,12.1
		c-22.4,15.1-48.1,26.1-76.2,31.6s-56.1,5.1-82.5-0.4c-6.6-1.4-13.1-3.1-19.5-5.1c-3.2-1-6.4-2.1-9.5-3.2h3.2v-118H25.8z"/>
	<path class="st38" d="M25.7-3.9h174.8v76.2h5.3c-2.5,2.3-5,4.4-7.6,6.6c-5.2,4.3-10.5,8.3-16.1,12.1c-22.4,15.1-48,26.1-76.2,31.6
		c-28.1,5.5-56.1,5.1-82.5-0.4c-6.6-1.4-13.1-3.1-19.5-5.1c-3.2-1-6.4-2.1-9.5-3.2h3.2V-3.9H25.7z"/>
	<path class="st39" d="M25.7-3.9h174.8v76h5.1c-2.5,2.3-5,4.4-7.6,6.6C192.9,83,187.5,87,182,90.8c-22.3,15.1-48,26.1-76.1,31.6
		s-56,5.1-82.4-0.4c-6.6-1.4-13.1-3.1-19.5-5.1c-3.2-1-6.4-2.1-9.5-3.2h3.2V-3.9H25.7z"/>
	<path class="st40" d="M25.6-3.9h174.9v75.8h5c-2.5,2.3-5,4.4-7.6,6.6c-5.2,4.3-10.5,8.3-16.1,12.1c-22.3,15.1-48,26.1-76.1,31.6
		c-28.1,5.5-56,5.1-82.4-0.4c-6.6-1.4-13.1-3.1-19.5-5.1c-3.2-1-6.4-2.1-9.5-3.2h3.3V-3.9H25.6z"/>
	<path class="st41" d="M25.6-3.9h174.9v75.5h4.8c-2.5,2.2-5,4.4-7.6,6.6c-5.1,4.3-10.5,8.3-16.1,12.1c-22.3,15.1-47.9,26-76,31.6
		s-56,5.1-82.3-0.4c-6.6-1.4-13.1-3.1-19.5-5.1c-3.2-1-6.4-2.1-9.5-3.2h3.3V-3.9H25.6z"/>
	<path class="st42" d="M25.6-3.9h174.9v75.3h4.7c-2.5,2.2-5,4.4-7.5,6.6c-5.1,4.3-10.5,8.3-16.1,12.1c-22.3,15.1-47.9,26-76,31.5
		c-28.1,5.5-55.9,5.1-82.3-0.4c-6.6-1.4-13.1-3.1-19.5-5.1c-3.2-1-6.3-2.1-9.5-3.2h3.3V-3.9H25.6z"/>
	<path class="st43" d="M25.5-3.9h175v75.1h4.5c-2.5,2.2-5,4.4-7.5,6.6c-5.1,4.3-10.5,8.3-16.1,12c-22.3,15.1-47.9,26-75.9,31.5
		s-55.9,5.1-82.2-0.4c-6.6-1.4-13.1-3.1-19.4-5.1c-3.2-1-6.3-2.1-9.5-3.2h3.3V-3.9H25.5z"/>
	<path class="st44" d="M25.5-3.9h175V71h4.3c-2.5,2.2-5,4.4-7.5,6.6c-5.1,4.3-10.5,8.3-16.1,12c-22.3,15.1-47.8,26-75.9,31.5
		s-55.8,5.1-82.2-0.4c-6.6-1.4-13.1-3.1-19.4-5.1c-3.2-1-6.3-2.1-9.5-3.2h3.3V-3.9H25.5z"/>
	<path class="st45" d="M25.4-3.9h175.1v74.7h4.2c-2.5,2.2-5,4.4-7.5,6.6c-5.1,4.3-10.5,8.3-16.1,12c-22.2,15-47.8,26-75.8,31.5
		s-55.8,5.1-82.1-0.4c-6.6-1.4-13.1-3.1-19.4-5.1c-3.2-1-6.3-2.1-9.5-3.2h3.4V-3.9H25.4z"/>
	<path class="st46" d="M25.4-3.9h175.1v74.4h4c-2.5,2.2-5,4.4-7.5,6.6c-5.1,4.3-10.5,8.3-16,12c-22.2,15-47.8,26-75.8,31.5
		s-55.8,5.1-82-0.4c-6.6-1.4-13-3.1-19.4-5c-3.2-1-6.3-2.1-9.5-3.2h3.4V-3.9H25.4z"/>
	<path class="st47" d="M25.4-3.9h175.2v74.2h3.9c-2.5,2.2-5,4.4-7.5,6.5c-5.1,4.2-10.5,8.3-16,12c-22.2,15-47.8,25.9-75.7,31.4
		s-55.7,5.1-82-0.4c-6.6-1.4-13-3.1-19.4-5c-3.2-1-6.3-2.1-9.4-3.2h3.4V-3.9H25.4z"/>
	<path class="st48" d="M25.3-3.9h175.2v74h3.7c-2.5,2.2-5,4.4-7.5,6.5c-5.1,4.2-10.5,8.3-16,12c-22.2,15-47.7,25.9-75.7,31.4
		c-28,5.5-55.7,5.1-81.9-0.4c-6.6-1.4-13-3.1-19.4-5c-3.2-1-6.3-2.1-9.4-3.2h3.4V-3.9H25.3z"/>
	<path class="st49" d="M25.3-3.9h175.2v73.8h3.6c-2.4,2.2-5,4.4-7.5,6.5c-5.1,4.2-10.5,8.3-16,12c-22.2,15-47.7,25.9-75.6,31.4
		c-27.9,5.5-55.7,5.1-81.9-0.4c-6.6-1.4-13-3.1-19.4-5c-3.2-1-6.3-2.1-9.4-3.2h3.4V-3.9H25.3z"/>
	<path class="st50" d="M25.2-3.9h175.3v73.6h3.4c-2.4,2.2-5,4.4-7.5,6.5c-5.1,4.2-10.5,8.2-16,12c-22.2,15-47.7,25.9-75.6,31.4
		c-27.9,5.5-55.6,5.1-81.8-0.4c-6.6-1.4-13-3.1-19.4-5c-3.2-1-6.3-2.1-9.4-3.2h3.5V-3.9H25.2z"/>
	<path class="st51" d="M25.2-3.9h175.3v73.3h3.2c-2.4,2.2-4.9,4.4-7.5,6.5c-5.1,4.2-10.4,8.2-16,12c-22.2,15-47.6,25.9-75.5,31.4
		c-27.9,5.5-55.6,5.1-81.8-0.4c-6.5-1.4-13-3-19.3-5c-3.2-1-6.3-2.1-9.4-3.2h3.5V-3.9H25.2z"/>
	<path class="st52" d="M25.2-3.9h175.4v73.1h3.1c-2.4,2.2-4.9,4.4-7.5,6.5c-5.1,4.2-10.4,8.2-16,12c-22.1,15-47.6,25.9-75.5,31.3
		c-27.9,5.5-55.6,5.1-81.7-0.4c-6.5-1.4-13-3-19.3-5c-3.2-1-6.3-2.1-9.4-3.2h3.5V-3.9H25.2z"/>
	<path class="st53" d="M25.1-3.9h175.4V69h2.9c-2.4,2.2-4.9,4.4-7.5,6.5c-5.1,4.2-10.4,8.2-16,12c-22.1,15-47.6,25.8-75.4,31.3
		c-27.9,5.5-55.5,5.1-81.7-0.4c-6.5-1.4-13-3-19.3-5c-3.2-1-6.3-2.1-9.4-3.2h3.5V-3.9H25.1z"/>
	<path class="st54" d="M25.1-3.9h175.4v72.7h2.8c-2.4,2.2-4.9,4.4-7.5,6.5c-5.1,4.2-10.4,8.2-16,12c-22.1,15-47.5,25.8-75.4,31.3
		s-55.5,5.1-81.6-0.4c-6.5-1.4-13-3-19.3-5c-3.2-1-6.3-2.1-9.4-3.2h3.5V-3.9H25.1z"/>
	<path class="st55" d="M25-3.9h175.5v72.5h2.6c-2.4,2.2-4.9,4.4-7.5,6.5c-5.1,4.2-10.4,8.2-15.9,12c-22.1,14.9-47.5,25.8-75.3,31.3
		c-27.8,5.5-55.4,5.1-81.6-0.4c-6.5-1.4-13-3-19.3-5c-3.2-1-6.3-2.1-9.4-3.2h3.6V-3.9H25z"/>
	<path class="st56" d="M25-3.9h175.5v72.3h2.4c-2.4,2.2-4.9,4.4-7.5,6.5c-5.1,4.2-10.4,8.2-15.9,11.9
		c-22.1,14.9-47.5,25.8-75.3,31.3s-55.4,5-81.5-0.4c-6.5-1.4-13-3-19.3-5c-3.2-1-6.3-2.1-9.4-3.2h3.6V-3.9H25z"/>
	<path class="st57" d="M24.9-3.9h175.6v72h2.3c-2.4,2.2-4.9,4.4-7.5,6.5c-5.1,4.2-10.4,8.2-15.9,11.9
		c-22.1,14.9-47.4,25.8-75.2,31.2c-27.8,5.5-55.4,5-81.5-0.4c-6.5-1.4-12.9-3-19.3-5c-3.2-1-6.3-2.1-9.4-3.2h3.6V-3.9H24.9z"/>
	<path class="st58" d="M24.9-3.9h175.6v71.8h2.1c-2.4,2.2-4.9,4.4-7.5,6.5c-5.1,4.2-10.4,8.2-15.9,11.9
		c-22.1,14.9-47.4,25.7-75.2,31.2s-55.3,5-81.4-0.4c-6.5-1.4-12.9-3-19.2-5c-3.2-1-6.3-2-9.4-3.2h3.6V-3.9H24.9z"/>
	<path class="st59" d="M24.9-3.9h175.6v71.6h2c-2.4,2.2-4.9,4.4-7.5,6.5c-5.1,4.2-10.4,8.2-15.9,11.9c-22,14.9-47.4,25.7-75.1,31.2
		c-27.8,5.5-55.3,5-81.3-0.4c-6.5-1.4-12.9-3-19.2-5c-3.2-1-6.3-2-9.4-3.2h3.6V-3.9H24.9z"/>
	<path class="st60" d="M24.8-3.9h175.7v71.4h1.8c-2.4,2.2-4.9,4.4-7.5,6.5c-5.1,4.2-10.4,8.2-15.9,11.9
		c-22,14.9-47.3,25.7-75.1,31.2s-55.3,5-81.3-0.4c-6.5-1.4-12.9-3-19.2-5c-3.2-1-6.3-2-9.4-3.2h3.7V-3.9H24.8z"/>
	<path class="st61" d="M24.8-3.9h175.7v71.2h1.7c-2.4,2.2-4.9,4.4-7.5,6.5c-5.1,4.2-10.4,8.2-15.9,11.9c-22,14.9-47.3,25.7-75,31.2
		c-27.7,5.5-55.2,5-81.2-0.4c-6.5-1.4-12.9-3-19.2-5c-3.1-1-6.3-2-9.4-3.2h3.7V-3.9H24.8z"/>
	<path class="st62" d="M24.7-3.9h175.8V67h1.5c-2.4,2.2-4.9,4.4-7.5,6.5c-5.1,4.2-10.4,8.2-15.9,11.9c-22,14.9-47.3,25.7-75,31.1
		s-55.2,5-81.2-0.4c-6.5-1.4-12.9-3-19.2-5c-3.1-1-6.3-2-9.4-3.2h3.7V-3.9H24.7z"/>
	<path class="st63" d="M24.7-3.9h175.8v70.7h1.3c-2.4,2.2-4.9,4.4-7.4,6.5c-5.1,4.2-10.4,8.2-15.9,11.9
		c-22,14.9-47.3,25.7-74.9,31.1c-27.7,5.4-55.2,5-81.1-0.4c-6.5-1.4-12.9-3-19.2-5c-3.1-1-6.3-2-9.3-3.2h3.7V-3.9H24.7z"/>
	<path class="st64" d="M24.7-3.9h175.8v70.5h1.2c-2.4,2.2-4.9,4.4-7.4,6.5c-5.1,4.2-10.4,8.2-15.9,11.9
		c-22,14.9-47.2,25.6-74.9,31.1c-27.7,5.4-55.1,5-81.1-0.4c-6.5-1.4-12.9-3-19.2-5c-3.1-1-6.3-2-9.3-3.2h3.7V-3.9H24.7z"/>
	<path class="st65" d="M24.6-3.9h175.9v70.3h1c-2.4,2.2-4.9,4.4-7.4,6.5c-5.1,4.2-10.4,8.2-15.8,11.9c-22,14.8-47.2,25.6-74.8,31.1
		c-27.6,5.4-55.1,5-81-0.4c-6.5-1.4-12.9-3-19.2-5c-3.1-1-6.3-2-9.3-3.2h3.8V-3.9H24.6z"/>
	<path class="st66" d="M24.6-3.9h175.9v70.1h0.9c-2.4,2.2-4.9,4.4-7.4,6.5c-5.1,4.2-10.3,8.2-15.8,11.9
		c-21.9,14.8-47.2,25.6-74.8,31c-27.6,5.4-55,5-81-0.4c-6.5-1.4-12.9-3-19.1-5c-3.1-1-6.2-2-9.3-3.2h3.8V-3.9H24.6z"/>
	<path class="st67" d="M24.5-3.9h176v63h7.8c-9.2,9.3-19.4,17.7-30.3,25.1c-21.9,14.8-47.1,25.6-74.7,31c-27.6,5.4-55,5-80.9-0.4
		c-6.5-1.4-12.9-3-19.1-5c-3.1-1-6.2-2-9.3-3.2h3.8V-3.9H24.5z"/>
	<path class="st68" d="M24.5-3.9h176v62.8h7.6c-9.2,9.3-19.4,17.7-30.3,25.1c-21.9,14.8-47.1,25.6-74.7,31c-27.6,5.4-55,5-80.9-0.4
		c-6.5-1.4-12.9-3-19.1-5c-3.1-1-6.2-2-9.3-3.2h3.8V-3.9H24.5z"/>
	<path class="st69" d="M24.5-3.9h176v62.6h7.5c-9.2,9.3-19.3,17.7-30.3,25.1c-21.9,14.8-47.1,25.6-74.6,31s-54.9,5-80.8-0.4
		c-6.5-1.4-12.8-3-19.1-5c-3.1-1-6.2-2-9.3-3.2h3.8V-3.9H24.5z"/>
	<path class="st70" d="M24.4-3.9h176.1v62.4h7.3c-9.2,9.3-19.3,17.7-30.3,25.1c-21.9,14.8-47,25.5-74.6,31s-54.9,5-80.8-0.4
		c-6.5-1.3-12.8-3-19.1-5c-3.1-1-6.2-2-9.3-3.2h3.9V-3.9H24.4z"/>
	<path class="st71" d="M24.4-3.9h176.1v62.2h7.1c-9.2,9.3-19.3,17.7-30.3,25.1c-21.9,14.8-47,25.5-74.5,30.9s-54.9,5-80.7-0.4
		c-6.5-1.3-12.8-3-19.1-5c-3.1-1-6.2-2-9.3-3.2h3.9V-3.9H24.4z"/>
	<path class="st72" d="M24.3-3.9h176.2v62h7c-9.2,9.2-19.3,17.6-30.2,25c-21.9,14.8-47,25.5-74.5,30.9s-54.8,5-80.7-0.4
		c-6.5-1.3-12.8-3-19.1-5c-3.1-1-6.2-2-9.3-3.2h3.9V-3.9H24.3z"/>
	<path class="st73" d="M24.3-3.9h176.2v61.8h6.8c-9.2,9.2-19.3,17.6-30.2,25c-21.8,14.8-46.9,25.5-74.4,30.9s-54.8,5-80.6-0.4
		c-6.5-1.3-12.8-3-19.1-5c-3.1-1-6.2-2-9.3-3.2h3.9V-3.9H24.3z"/>
	<path class="st74" d="M24.3-3.9h176.2v61.5h6.7c-9.2,9.2-19.3,17.6-30.2,25c-21.8,14.8-46.9,25.5-74.4,30.9
		c-27.5,5.4-54.8,5-80.5-0.4c-6.4-1.3-12.8-3-19-5c-3.1-1-6.2-2-9.3-3.2h4V-3.9H24.3z"/>
	<path class="st75" d="M24.2-3.9h176.3v61.3h6.5c-9.2,9.2-19.3,17.6-30.2,25c-21.8,14.7-46.9,25.5-74.3,30.9s-54.7,5-80.5-0.4
		c-6.4-1.3-12.8-3-19-5c-3.1-1-6.2-2-9.3-3.1h4V-3.9H24.2z"/>
	<path class="st76" d="M24.2-3.9h176.3v61.1h6.3c-9.2,9.2-19.3,17.6-30.2,25c-21.8,14.7-46.8,25.4-74.3,30.8
		c-27.4,5.4-54.7,5-80.4-0.4c-6.4-1.3-12.8-3-19-5c-3.1-1-6.2-2-9.3-3.1h4V-3.9H24.2z"/>
	<path class="st77" d="M24.1-3.9h176.4V57h6.2c-9.2,9.2-19.2,17.6-30.1,25c-21.8,14.7-46.8,25.4-74.2,30.8s-54.6,5-80.4-0.4
		c-6.4-1.3-12.8-3-19-4.9c-3.1-1-6.2-2-9.3-3.1h4V-3.9H24.1z"/>
	<path class="st78" d="M24.1-3.9h176.4v60.7h6c-9.2,9.2-19.2,17.6-30.1,24.9c-21.8,14.7-46.8,25.4-74.2,30.8
		c-27.4,5.4-54.6,5-80.3-0.4c-6.4-1.3-12.8-3-19-4.9c-3.1-1-6.2-2-9.3-3.1h4V-3.9H24.1z"/>
	<path class="st78" d="M24.1-3.9h176.4v60.6h5.9c-9.1,9.2-19.2,17.6-30.1,24.9c-21.8,14.7-46.8,25.4-74.1,30.8
		c-27.4,5.4-54.6,5-80.3-0.4c-6.4-1.3-12.8-3-19-4.9c-3.1-1-6.2-2-9.2-3.1h4V-3.9H24.1z"/>
	<path class="st77" d="M24-3.9h176.5v60.2h5.6c-9.1,9.2-19.2,17.5-30.1,24.9c-21.7,14.7-46.7,25.4-74,30.7s-54.5,5-80.2-0.4
		c-6.4-1.3-12.7-3-19-4.9c-3.1-1-6.2-2-9.2-3.1h4V-3.9H24z"/>
	<path class="st76" d="M24-3.9h176.5v59.8h5.3c-9.1,9.2-19.2,17.5-30,24.9c-21.7,14.7-46.6,25.3-73.9,30.7
		c-27.3,5.4-54.4,5-80.1-0.4c-6.4-1.3-12.7-3-18.9-4.9c-3.1-1-6.2-2-9.2-3.1h4.1V-3.9H24z"/>
	<path class="st75" d="M23.9-3.9h176.6v59.3h5c-9.1,9.2-19.1,17.5-30,24.8c-21.7,14.7-46.6,25.3-73.9,30.7c-27.3,5.4-54.4,5-80-0.4
		c-6.4-1.3-12.7-3-18.9-4.9c-3.1-1-6.2-2-9.2-3.1h4.1V-3.9H23.9z"/>
	<path class="st74" d="M23.8-3.9h176.7V55h4.7c-9.1,9.2-19.1,17.5-29.9,24.8c-21.6,14.6-46.5,25.3-73.8,30.6s-54.3,4.9-79.9-0.4
		c-6.4-1.3-12.7-3-18.9-4.9c-3.1-1-6.2-2-9.2-3.1h4.1V-3.9H23.8z"/>
	<path class="st73" d="M23.7-3.9h176.8v58.5h4.4c-9.1,9.1-19.1,17.5-29.9,24.8c-21.6,14.6-46.5,25.2-73.7,30.6
		c-27.2,5.4-54.2,4.9-79.8-0.4c-6.4-1.3-12.7-3-18.9-4.9c-3.1-1-6.2-2-9.2-3.1h4.2V-3.9H23.7z"/>
	<path class="st72" d="M23.7-3.9h176.9v58.1h4c-9.1,9.1-19.1,17.4-29.9,24.7c-21.6,14.6-46.4,25.2-73.6,30.5
		c-27.2,5.3-54.1,4.9-79.7-0.4c-6.4-1.3-12.7-3-18.8-4.9c-3.1-1-6.1-2-9.2-3.1h4.2v-105H23.7z"/>
	<path class="st71" d="M23.6-3.9h176.9v57.7h3.7c-9.1,9.1-19,17.4-29.8,24.7c-21.6,14.6-46.3,25.2-73.5,30.5s-54.1,4.9-79.6-0.4
		c-6.4-1.3-12.6-3-18.8-4.9c-3.1-1-6.1-2-9.2-3.1h4.3V-3.9H23.6z"/>
	<path class="st70" d="M23.5-3.9h177v57.3h3.4c-9.1,9.1-19,17.4-29.8,24.7c-21.5,14.6-46.3,25.1-73.4,30.5s-54,4.9-79.4-0.4
		c-6.4-1.3-12.6-3-18.8-4.9c-3.1-1-6.1-2-9.2-3.1h4.3v-104H23.5z"/>
	<path class="st69" d="M23.4-3.9h177.1V53h3.1c-9,9.1-19,17.4-29.7,24.6c-21.5,14.5-46.2,25.1-73.3,30.4
		c-27.1,5.3-53.9,4.9-79.3-0.4c-6.4-1.3-12.6-3-18.8-4.9c-3.1-1-6.1-2-9.1-3.1h4.3V-3.9H23.4z"/>
	<path class="st68" d="M23.3-3.9h177.2v56.4h2.8c-9,9.1-19,17.3-29.7,24.6c-21.5,14.5-46.2,25.1-73.2,30.4s-53.9,4.9-79.2-0.4
		c-6.3-1.3-12.6-3-18.7-4.9c-3.1-1-6.1-2-9.1-3.1h4.4V-3.9H23.3z"/>
	<path class="st67" d="M23.3-3.9h177.2v56h2.5c-9,9.1-18.9,17.3-29.7,24.6c-21.4,14.5-46.1,25-73.1,30.3s-53.8,4.9-79.1-0.4
		c-6.3-1.3-12.6-3-18.7-4.9c-3.1-1-6.1-2-9.1-3.1h4.4V-3.9H23.3z"/>
	<path class="st66" d="M23.2-3.9h177.3v55.6h2.2c-9,9.1-18.9,17.3-29.6,24.5c-21.4,14.5-46,25-73,30.3c-27,5.3-53.7,4.9-79-0.4
		c-6.3-1.3-12.6-2.9-18.7-4.9c-3.1-1-6.1-2-9.1-3.1h4.5V-3.9H23.2z"/>
	<path class="st65" d="M23.1-3.9h177.4v55.2h1.8c-9,9.1-18.9,17.3-29.6,24.5c-21.4,14.5-46,25-72.9,30.3
		c-26.9,5.3-53.7,4.9-78.9-0.4c-6.3-1.3-12.5-2.9-18.7-4.9c-3.1-1-6.1-2-9.1-3.1h4.5V-3.9H23.1z"/>
	<path class="st64" d="M23-3.9h177.5v54.8h1.5c-9,9-18.9,17.2-29.6,24.5c-21.4,14.4-45.9,24.9-72.8,30.2s-53.6,4.9-78.8-0.4
		c-6.3-1.3-12.5-2.9-18.6-4.9c-3.1-1-6.1-2-9.1-3.1h4.5V-3.9H23z"/>
	<path class="st63" d="M22.9-3.9h177.6v54.4h1.2c-9,9-18.8,17.2-29.5,24.4c-21.3,14.4-45.9,24.9-72.7,30.2
		c-26.9,5.3-53.5,4.9-78.7-0.4c-6.3-1.3-12.5-2.9-18.6-4.8c-3.1-1-6.1-2-9.1-3.1h4.6V-3.9H22.9z"/>
	<path class="st62" d="M22.9-3.9h177.6v54h0.9c-9,9-18.8,17.2-29.5,24.4c-21.3,14.4-45.8,24.9-72.6,30.1
		c-26.8,5.3-53.4,4.9-78.6-0.4c-6.3-1.3-12.5-2.9-18.6-4.8c-3-1-6.1-2-9.1-3.1h4.6V-3.9H22.9z"/>
	<path class="st61" d="M22.8-3.9h177.7v53.6h0.6c-8.9,9-18.8,17.2-29.4,24.4c-21.3,14.4-45.7,24.8-72.5,30.1s-53.4,4.9-78.5-0.4
		c-6.3-1.3-12.5-2.9-18.6-4.8c-3-1-6.1-2-9-3.1h4.6V-3.9H22.8z"/>
	<path class="st60" d="M22.7-3.9h177.8v53.1h0.3c-8.9,9-18.8,17.2-29.4,24.3C150.1,88,125.7,98.4,99,103.7
		c-26.8,5.3-53.3,4.9-78.4-0.4C14.3,102,8.1,100.4,2,98.4c-3-1-6.1-2-9-3.1h4.7V-3.9H22.7z"/>
	<path class="st59" d="M22.6-3.9h177.9V42h6.5c-2.1,2.3-4.3,4.6-6.5,6.9c-8.9,9-18.7,17.1-29.4,24.3c-21.2,14.3-45.6,24.8-72.3,30
		c-26.7,5.3-53.2,4.9-78.3-0.4C14.2,101.5,8,99.9,2,98c-3-0.9-6-2-9-3.1h4.7V-3.9H22.6z"/>
	<path class="st58" d="M22.6-3.9h177.9v45.4h6.2c-2.1,2.3-4.3,4.6-6.5,6.9c-8.9,9-18.7,17.1-29.3,24.3c-21.2,14.3-45.6,24.7-72.2,30
		s-53.2,4.8-78.2-0.4C14.1,101,8,99.4,1.9,97.5c-3-0.9-6-2-9-3.1h4.8V-3.9H22.6z"/>
	<path class="st57" d="M22.5-3.9h178v45h5.9c-2.1,2.3-4.3,4.6-6.5,6.9c-8.9,9-18.7,17.1-29.3,24.2c-21.2,14.3-45.5,24.7-72.1,29.9
		s-53.1,4.8-78.1-0.4c-6.3-1.3-12.4-2.9-18.5-4.8c-3-0.9-6-2-9-3.1h4.8V-3.9H22.5z"/>
	<path class="st56" d="M22.4-3.9h178.1v44.6h5.5c-2.1,2.3-4.3,4.6-6.5,6.9c-8.9,8.9-18.7,17.1-29.2,24.2
		c-21.1,14.3-45.4,24.7-72,29.9c-26.6,5.2-53,4.8-78-0.4C14,100,7.9,98.4,1.8,96.5c-3-0.9-6-2-9-3.1h4.8V-3.9H22.4z"/>
	<path class="st55" d="M22.3-3.9h178.2v44.2h5.2c-2.1,2.3-4.3,4.6-6.5,6.9c-8.9,8.9-18.6,17-29.2,24.2
		c-21.1,14.3-45.4,24.6-71.9,29.9s-53,4.8-77.9-0.4c-6.2-1.3-12.4-2.9-18.4-4.8c-3-0.9-6-2-9-3h4.9V-3.9H22.3z"/>
	<path class="st54" d="M22.2-3.9h178.3v43.8h4.9c-2.1,2.3-4.3,4.6-6.5,6.8c-8.9,8.9-18.6,17-29.2,24.1
		c-21.1,14.3-45.3,24.6-71.9,29.8s-52.9,4.8-77.8-0.4c-6.2-1.3-12.4-2.9-18.4-4.8c-3-0.9-6-2-9-3h4.9V-3.9H22.2z"/>
	<path class="st53" d="M22.2-3.9h178.3v43.4h4.6c-2.1,2.3-4.3,4.6-6.5,6.8c-8.9,8.9-18.6,17-29.1,24.1
		c-21.1,14.2-45.2,24.6-71.8,29.8c-26.5,5.2-52.8,4.8-77.7-0.4C13.8,98.6,7.7,97,1.7,95.1c-3-0.9-6-2-8.9-3h5V-3.9H22.2z"/>
	<path class="st52" d="M22.1-3.9h178.4v43h4.2c-2.1,2.3-4.3,4.6-6.5,6.8c-8.8,8.9-18.6,17-29.1,24.1c-21,14.2-45.2,24.5-71.7,29.8
		c-26.5,5.2-52.7,4.8-77.6-0.4c-6.2-1.3-12.3-2.9-18.3-4.8c-3-0.9-6-2-8.9-3h5V-3.9H22.1z"/>
	<path class="st51" d="M22-3.9h178.5v42.6h3.9c-2.1,2.3-4.2,4.6-6.5,6.8c-8.8,8.9-18.5,17-29,24.1c-21,14.2-45.1,24.5-71.6,29.7
		s-52.7,4.8-77.5-0.4C13.7,97.6,7.6,96,1.6,94.1c-3-0.9-6-2-8.9-3h5v-95H22z"/>
	<path class="st50" d="M21.9-3.9h178.6v42.2h3.6c-2.1,2.3-4.2,4.6-6.4,6.8c-8.8,8.9-18.5,16.9-29,24c-21,14.2-45.1,24.5-71.5,29.7
		c-26.4,5.2-52.6,4.8-77.4-0.4c-6.2-1.3-12.3-2.9-18.3-4.8c-3-0.9-6-1.9-8.9-3h5.1V-3.9H21.9z"/>
	<path class="st49" d="M21.9-3.9h178.7v41.8h3.3c-2.1,2.3-4.2,4.6-6.4,6.8c-8.8,8.9-18.5,16.9-29,24c-20.9,14.2-45,24.4-71.4,29.6
		c-26.4,5.2-52.5,4.8-77.3-0.4c-6.2-1.3-12.3-2.9-18.3-4.8c-3-0.9-6-1.9-8.9-3h5.1v-94H21.9z"/>
	<path class="st48" d="M21.8-3.9h178.7v41.4h3c-2.1,2.3-4.2,4.6-6.4,6.8c-8.8,8.9-18.5,16.9-28.9,24c-20.9,14.1-44.9,24.4-71.3,29.6
		s-52.5,4.8-77.2-0.4c-6.2-1.3-12.3-2.9-18.2-4.7c-3-0.9-6-1.9-8.9-3h5.2V-3.9H21.8z"/>
	<path class="st47" d="M21.7-3.9h178.8v41h2.6c-2.1,2.3-4.2,4.6-6.4,6.8c-8.8,8.8-18.4,16.9-28.9,23.9
		c-20.9,14.1-44.9,24.4-71.2,29.6c-26.3,5.2-52.4,4.8-77.1-0.4c-6.2-1.3-12.3-2.9-18.2-4.7c-3-0.9-5.9-1.9-8.9-3h5.2V-3.9H21.7z"/>
	<path class="st46" d="M21.6-3.9h178.9v40.6h2.3c-2.1,2.3-4.2,4.6-6.4,6.8c-8.8,8.8-18.4,16.8-28.9,23.9
		c-20.9,14.1-44.8,24.3-71.1,29.5c-26.3,5.2-52.3,4.8-77-0.4c-6.2-1.3-12.2-2.9-18.2-4.7c-3-0.9-5.9-1.9-8.9-3h5.2V-3.9H21.6z"/>
	<path class="st45" d="M21.5-3.9h179v40.2h2c-2.1,2.3-4.2,4.6-6.4,6.8c-8.8,8.8-18.4,16.8-28.8,23.9c-20.8,14.1-44.8,24.3-71,29.5
		S44,101.1,19.4,96c-6.2-1.3-12.2-2.9-18.2-4.7c-3-0.9-5.9-1.9-8.9-3h5.3V-3.9H21.5z"/>
	<path class="st44" d="M21.5-3.9h179v32.7h7.7c-3.9,4.8-8.1,9.4-12.5,13.8c-8.7,8.8-18.4,16.8-28.8,23.8
		c-20.8,14.1-44.7,24.3-70.9,29.4s-52.2,4.8-76.8-0.4c-6.1-1.3-12.2-2.9-18.2-4.7c-3-0.9-5.9-1.9-8.8-3h5.3V-3.9H21.5z"/>
	<path class="st43" d="M21.4-3.9h179.1v32.3h7.4c-3.9,4.8-8.1,9.4-12.4,13.8C186.7,51,177.1,59,166.7,66
		c-20.8,14-44.6,24.2-70.8,29.4c-26.2,5.1-52.1,4.7-76.7-0.4c-6.1-1.3-12.2-2.9-18.1-4.7c-3-0.9-5.9-1.9-8.8-3h5.4V-3.9H21.4z"/>
	<path class="st42" d="M21.3-3.9h179.2v31.9h7.1c-3.9,4.8-8.1,9.4-12.4,13.8c-8.7,8.8-18.3,16.8-28.7,23.8
		c-20.7,14-44.6,24.2-70.7,29.4c-26.1,5.1-52,4.7-76.6-0.4C13.1,93.3,7,91.7,1.1,89.8c-3-0.9-5.9-1.9-8.8-3h5.4V-3.9H21.3z"/>
	<path class="st41" d="M21.2-3.9h179.3v31.5h6.7c-3.9,4.8-8,9.4-12.4,13.7c-8.7,8.8-18.3,16.7-28.7,23.7
		c-20.7,14-44.5,24.2-70.6,29.3c-26.1,5.1-52,4.7-76.5-0.4C13,92.8,7,91.2,1,89.4c-3-0.9-5.9-1.9-8.8-3h5.4V-3.9H21.2z"/>
	<path class="st40" d="M21.1-3.9h179.4v31.1h6.4c-3.9,4.8-8,9.3-12.4,13.7c-8.7,8.8-18.3,16.7-28.6,23.7
		c-20.7,14-44.5,24.2-70.5,29.3S43.5,98.7,19,93.6C12.9,92.3,6.9,90.7,1,88.9c-3-0.9-5.9-1.9-8.8-3h5.5V-3.9H21.1z"/>
	<path class="st39" d="M21.1-3.9h179.4v30.8h6.1c-3.9,4.8-8,9.3-12.4,13.7c-8.7,8.7-18.3,16.7-28.6,23.7
		c-20.7,14-44.4,24.1-70.4,29.2S43.4,98.2,19,93.1c-6.1-1.3-12.1-2.8-18-4.7c-3-0.9-5.9-1.9-8.8-3h5.5V-3.9H21.1z"/>
	<path class="st38" d="M21-3.9h179.5v30.4h5.8c-3.9,4.7-8,9.3-12.4,13.7c-8.7,8.7-18.2,16.7-28.5,23.6C144.7,77.7,121,87.9,95,93
		c-26,5.1-51.8,4.7-76.1-0.4c-6.1-1.3-12.1-2.8-18-4.7c-3-0.9-5.9-1.9-8.8-3h5.5V-3.9H21z"/>
	<path class="st37" d="M20.9-3.9h179.6v30h5.4c-3.9,4.7-8,9.3-12.3,13.7c-8.7,8.7-18.2,16.6-28.5,23.6
		c-20.6,13.9-44.3,24.1-70.2,29.2s-51.7,4.7-76-0.4c-6.1-1.3-12.1-2.8-18-4.7c-2.9-0.9-5.9-1.9-8.8-3h5.6V-3.9H20.9z"/>
	<path class="st36" d="M20.8-3.9h179.7v29.6h5.1c-3.9,4.7-8,9.3-12.3,13.6c-8.7,8.7-18.2,16.6-28.5,23.6
		c-20.6,13.9-44.2,24-70.1,29.1s-51.6,4.7-75.9-0.4c-6.1-1.3-12.1-2.8-18-4.7C-2.2,86-5.1,85.1-8,84h5.6V-3.9H20.8z"/>
	<path class="st35" d="M20.8-3.9h179.7v29.2h4.8c-3.9,4.7-8,9.3-12.3,13.6c-8.6,8.7-18.2,16.6-28.4,23.5c-20.6,13.9-44.2,24-70,29.1
		c-25.9,5.1-51.6,4.7-75.8-0.4c-6.1-1.3-12.1-2.8-17.9-4.7c-2.9-0.9-5.9-1.9-8.7-3h5.7V-3.9H20.8z"/>
	<path class="st34" d="M20.7-3.9h179.8v28.8h4.4c-3.9,4.7-8,9.3-12.3,13.6c-8.6,8.7-18.1,16.6-28.4,23.5c-20.5,13.9-44.1,24-69.9,29
		s-51.5,4.7-75.7-0.4c-6.1-1.3-12-2.8-17.9-4.7c-2.9-0.9-5.8-1.9-8.7-3h5.7V-3.9H20.7z"/>
	<path class="st33" d="M20.6-3.9h179.9v28.4h4.1c-3.9,4.7-8,9.3-12.3,13.6c-8.6,8.7-18.1,16.5-28.4,23.5c-20.5,13.9-44,23.9-69.8,29
		s-51.4,4.7-75.6-0.4c-6.1-1.3-12-2.8-17.9-4.7c-2.9-0.9-5.8-1.9-8.7-3h5.7V-3.9H20.6z"/>
	<path class="st32" d="M20.5-3.9h180v28h3.8c-3.9,4.7-7.9,9.2-12.3,13.6c-8.6,8.7-18.1,16.5-28.3,23.4C143.3,75,119.7,85,94,90.1
		c-25.8,5.1-51.3,4.7-75.5-0.4c-6-1.3-12-2.8-17.9-4.6c-2.9-0.9-5.8-1.9-8.7-3h5.8v-86H20.5z"/>
	<path class="st31" d="M20.4-3.9h180.1v27.6h3.5c-3.9,4.7-7.9,9.2-12.2,13.6c-8.6,8.6-18.1,16.5-28.3,23.4
		C143,74.5,119.5,84.5,93.8,89.6c-25.7,5.1-51.3,4.7-75.4-0.4c-6-1.3-12-2.8-17.8-4.6c-2.9-0.9-5.8-1.9-8.7-3h5.8V-3.9H20.4z"/>
	<path class="st30" d="M20.4-3.9h180.1v27.2h3.1c-3.8,4.7-7.9,9.2-12.2,13.5c-8.6,8.6-18,16.5-28.2,23.4
		C142.8,74,119.3,84,93.6,89.1s-51.2,4.7-75.3-0.4c-6-1.3-12-2.8-17.8-4.6c-2.9-0.9-5.8-1.9-8.7-2.9h5.9v-85H20.4z"/>
	<path class="st29" d="M20.3-3.9h180.2v26.8h2.8c-3.8,4.7-7.9,9.2-12.2,13.5c-8.6,8.6-18,16.5-28.2,23.3
		c-20.4,13.8-43.8,23.8-69.5,28.8c-25.7,5-51.1,4.7-75.2-0.4c-6-1.3-12-2.8-17.8-4.6c-2.9-0.9-5.8-1.9-8.7-2.9h5.9V-3.9H20.3z"/>
	<path class="st28" d="M20.2-3.9h180.3v26.4h2.5c-3.8,4.7-7.9,9.2-12.2,13.5c-8.6,8.6-18,16.4-28.2,23.3
		c-20.4,13.8-43.7,23.8-69.4,28.8c-25.6,5-51.1,4.7-75.1-0.4c-6-1.3-11.9-2.8-17.8-4.6c-2.9-0.9-5.8-1.9-8.7-2.9h5.9V-3.9H20.2z"/>
	<path class="st27" d="M20.1-3.9h180.4v26h2.1c-3.8,4.7-7.9,9.2-12.2,13.5c-8.5,8.6-18,16.4-28.1,23.3
		C142,72.6,118.7,82.6,93.1,87.7s-51,4.6-75-0.4c-6-1.3-11.9-2.8-17.7-4.6c-2.9-0.9-5.8-1.9-8.6-2.9h6V-3.9H20.1z"/>
	<path class="st26" d="M20.1-3.9h180.5v25.6h1.8c-3.8,4.7-7.9,9.2-12.2,13.5c-8.5,8.6-17.9,16.4-28.1,23.3
		c-20.3,13.7-43.6,23.7-69.2,28.7S42,91.8,18,86.8C12,85.5,6.1,84,0.3,82.2c-2.9-0.9-5.8-1.9-8.6-2.9h6V-3.9H20.1z"/>
	<path class="st25" d="M20-3.9h180.5v25.2h1.5c-3.8,4.7-7.9,9.2-12.1,13.4c-8.5,8.6-17.9,16.4-28,23.2
		c-20.3,13.7-43.6,23.7-69.1,28.7c-25.5,5-50.8,4.6-74.8-0.4c-6-1.3-11.9-2.8-17.7-4.6c-2.9-0.9-5.8-1.9-8.6-2.9h6.1V-3.9H20z"/>
	<path class="st24" d="M19.9-3.9h180.6v24.8h1.1c-3.8,4.7-7.9,9.1-12.1,13.4c-8.5,8.6-17.9,16.3-28,23.2
		c-20.2,13.7-43.5,23.6-69,28.6s-50.8,4.6-74.7-0.4C11.9,84.6,6,83,0.2,81.2c-2.9-0.9-5.8-1.9-8.6-2.9h6.1V-3.9H19.9z"/>
	<path class="st23" d="M19.8-3.9h180.7v24.4h0.8c-3.8,4.7-7.9,9.1-12.1,13.4c-8.5,8.6-17.9,16.3-28,23.2
		C141,70.8,117.8,80.7,92.4,85.7s-50.7,4.6-74.6-0.4c-6-1.2-11.9-2.8-17.6-4.6c-2.9-0.9-5.8-1.9-8.6-2.9h6.1V-3.9H19.8z"/>
	<path class="st22" d="M19.7-3.9h180.8v24h0.5c-3.8,4.6-7.8,9.1-12.1,13.4c-8.5,8.5-17.8,16.3-27.9,23.1
		c-20.2,13.6-43.4,23.6-68.8,28.6c-25.4,5-50.6,4.6-74.5-0.4c-6-1.2-11.8-2.8-17.6-4.6c-2.9-0.9-5.7-1.9-8.6-2.9h6.2V-3.9H19.7z"/>
	<path class="st21" d="M19.7-3.9h180.8v23.6h0.2c-3.8,4.6-7.8,9.1-12.1,13.4c-8.5,8.5-17.8,16.3-27.9,23.1
		C140.5,69.8,117.4,79.7,92,84.7s-50.6,4.6-74.4-0.4c-6-1.2-11.8-2.8-17.6-4.6c-2.9-0.9-5.7-1.9-8.6-2.9h6.2V-3.9H19.7z"/>
	<path class="st20" d="M19.6-3.9h180.9v16.2h5.4c-1.8,2.4-3.6,4.8-5.5,7.1c-3.8,4.6-7.8,9.1-12.1,13.3c-8.5,8.5-17.8,16.3-27.8,23.1
		c-20.1,13.6-43.3,23.5-68.6,28.5s-50.5,4.6-74.3-0.4C11.6,82.6,5.7,81.1,0,79.3c-2.9-0.9-5.7-1.9-8.6-2.9h6.2V-3.9H19.6z"/>
	<path class="st19" d="M19.5-3.9h181v15.8h5c-1.8,2.4-3.6,4.8-5.5,7.1c-3.8,4.6-7.8,9.1-12,13.3c-8.5,8.5-17.8,16.2-27.8,23
		C140.1,68.9,117,78.8,91.6,83.8c-25.3,5-50.4,4.6-74.2-0.4c-5.9-1.2-11.8-2.8-17.5-4.6c-2.9-0.9-5.7-1.9-8.5-2.9h6.3V-3.9H19.5z"/>
	<path class="st18" d="M19.4-3.9h181.1v15.4h4.7c-1.8,2.4-3.6,4.8-5.5,7.1c-3.8,4.6-7.8,9.1-12,13.3c-8.4,8.5-17.7,16.2-27.8,23
		c-20.1,13.6-43.1,23.4-68.4,28.4c-25.3,5-50.4,4.6-74.1-0.4c-5.9-1.2-11.8-2.8-17.5-4.6c-2.9-0.9-5.7-1.9-8.5-2.9h6.3V-3.9H19.4z"
		/>
	<path class="st17" d="M19.4-3.9h181.2v15h4.3c-1.8,2.4-3.6,4.7-5.5,7.1c-3.8,4.6-7.8,9-12,13.3c-8.4,8.5-17.7,16.2-27.7,23
		c-20,13.6-43.1,23.4-68.3,28.4s-50.3,4.6-74-0.4c-5.9-1.2-11.8-2.8-17.5-4.6C-3,77-5.9,76-8.7,75h6.4V-3.9H19.4z"/>
	<path class="st16" d="M19.3-3.9h181.2v14.6h4c-1.8,2.4-3.6,4.7-5.5,7c-3.8,4.6-7.8,9-12,13.3c-8.4,8.5-17.7,16.2-27.7,22.9
		c-20,13.5-43,23.4-68.2,28.3c-25.2,5-50.2,4.6-73.9-0.4c-5.9-1.2-11.7-2.8-17.5-4.5c-2.9-0.9-5.7-1.9-8.5-2.9h6.4V-3.9H19.3z"/>
	<path class="st15" d="M19.2-3.9h181.3v14.2h3.7c-1.8,2.4-3.6,4.7-5.5,7c-3.8,4.6-7.8,9-12,13.3c-8.4,8.5-17.7,16.1-27.7,22.9
		c-20,13.5-43,23.3-68.1,28.3c-25.2,5-50.1,4.6-73.8-0.4c-5.9-1.2-11.7-2.8-17.4-4.5C-3.1,76-6,75.1-8.8,74h6.4V-3.9H19.2z"/>
	<path class="st14" d="M19.1-3.9h181.4V10h3.3c-1.8,2.4-3.6,4.7-5.5,7c-3.8,4.6-7.8,9-12,13.2c-8.4,8.4-17.6,16.1-27.6,22.9
		c-20,13.5-42.9,23.3-68,28.2S40.7,85.9,17.1,81c-5.9-1.2-11.7-2.7-17.4-4.5c-2.9-0.9-5.7-1.9-8.5-2.9h6.5V-3.9H19.1z"/>
	<path class="st13" d="M19-3.9h181.5V9.6h3c-1.8,2.4-3.6,4.7-5.5,7c-3.8,4.6-7.7,9-11.9,13.2c-8.4,8.4-17.6,16.1-27.6,22.8
		c-19.9,13.5-42.8,23.3-67.9,28.2s-50,4.6-73.6-0.4C11.1,79.3,5.3,77.8-0.4,76c-2.9-0.9-5.7-1.9-8.5-2.9h6.5v-77H19z"/>
	<path class="st12" d="M19-3.9h181.5V2h7.8c-26.4,39.3-67.8,68.6-117.9,78.4c-25.1,4.9-49.9,4.6-73.5-0.4
		c-5.9-1.2-11.7-2.7-17.4-4.5c-2.8-0.9-5.7-1.8-8.5-2.9h6.6V-3.9H19z"/>
	<path class="st11" d="M18.9-3.9h181.6v5.5h7.4C181.6,40.8,140.3,70,90.2,79.9c-25,4.9-49.9,4.5-73.4-0.4C11,78.3,5.2,76.8-0.5,75
		c-2.8-0.9-5.7-1.8-8.4-2.9h6.6v-76H18.9z"/>
	<path class="st10" d="M18.8-3.9h181.7v5.1h7.1C181.3,40.4,140,69.6,90,79.4c-25,4.9-49.8,4.5-73.3-0.4c-5.9-1.2-11.6-2.7-17.3-4.5
		c-2.8-0.9-5.7-1.8-8.4-2.9h6.6V-3.9H18.8z"/>
	<path class="st9" d="M18.7-3.9h181.8v4.7h6.7C181,40,139.8,69.1,89.9,78.9c-25,4.9-49.7,4.5-73.1-0.4c-5.9-1.2-11.6-2.7-17.3-4.5
		c-2.8-0.9-5.6-1.8-8.4-2.9h6.7V-3.9H18.7z"/>
	<path class="st8" d="M18.6-3.9h181.9v4.3h6.4c-26.2,39.1-67.4,68.2-117.2,78c-24.9,4.9-49.7,4.5-73-0.4C10.8,76.9,5,75.4-0.6,73.6
		c-2.8-0.9-5.6-1.8-8.4-2.9h6.7V-3.9H18.6z"/>
	<path class="st7" d="M18.6-3.9h181.9v4h6.1c-26.2,39-67.3,68.1-117.1,77.9c-24.9,4.9-49.6,4.5-72.9-0.4C10.7,76.4,5,74.9-0.7,73.1
		c-2.8-0.9-5.6-1.8-8.4-2.9h6.8V-3.9H18.6z"/>
	<path class="st6" d="M18.5-3.9h182v3.6h5.7c-26.2,39-67.2,68-116.9,77.8c-24.8,4.9-49.5,4.5-72.8-0.4c-5.8-1.2-11.6-2.7-17.2-4.5
		c-2.8-0.9-5.6-1.8-8.4-2.9h6.8V-3.9H18.5z"/>
	<path class="st5" d="M18.4-3.9h182.1v3.2h5.4C179.8,38.3,138.8,67.2,89.1,77c-24.8,4.9-49.4,4.5-72.7-0.4
		c-5.8-1.2-11.6-2.7-17.2-4.5c-2.8-0.9-5.6-1.8-8.4-2.8h6.8V-3.9H18.4z"/>
	<path class="st4" d="M18.3-3.9h182.2V-1h5c-26.1,38.9-67,67.8-116.6,77.5c-24.8,4.9-49.4,4.5-72.6-0.4c-5.8-1.2-11.5-2.7-17.2-4.5
		c-2.8-0.9-5.6-1.8-8.4-2.8h6.9V-3.9H18.3z"/>
	<path class="st3" d="M18.3-3.9h182.2v2.5h4.7c-26,38.8-66.9,67.7-116.4,77.4c-24.7,4.9-49.3,4.5-72.5-0.4
		c-5.8-1.2-11.5-2.7-17.2-4.5c-2.8-0.9-5.6-1.8-8.4-2.8h6.9V-3.9H18.3z"/>
	<path class="st2" d="M18.2-3.9h182.3v2.1h4.3C178.8,37,138,65.8,88.6,75.5c-24.7,4.9-49.2,4.5-72.4-0.4C10.4,74,4.7,72.5-0.9,70.7
		c-2.8-0.9-5.6-1.8-8.3-2.8h7V-3.9H18.2z"/>
	<path class="st1" d="M18.1-3.9h182.4v1.7h4c-26,38.7-66.7,67.5-116.1,77.2c-24.7,4.9-49.2,4.5-72.3-0.4C10.3,73.5,4.6,72-1,70.2
		c-2.8-0.9-5.6-1.8-8.3-2.8h7V-3.9H18.1z"/>
	<path class="st0" d="M18-3.9h182.5v1.3h3.6c-25.9,38.6-66.6,67.4-115.9,77.1C63.6,79.4,39.2,79,16,74.2C10.3,73,4.6,71.5-1,69.8
		c-2.8-0.9-5.6-1.8-8.3-2.8h7V-3.9H18z"/>
	<path class="st0" d="M18.1-3.9h182.4v1.2h3.4c-25.9,38.6-66.5,67.3-115.7,77c-24.6,4.8-49,4.5-72.1-0.4C10.3,72.7,4.6,71.3-1,69.5
		c-2.8-0.9-5.6-1.8-8.3-2.8h6.9V-3.9H18.1z"/>
	<path class="st0" d="M13.3-3.9h187.2h-12.4v-5.9c-1.7,2.3-3.4,4.5-5.2,6.6c-3.6,4.3-7.3,8.5-11.3,12.5c-7.9,8-16.7,15.3-26.1,21.6
		c-18.9,12.8-40.6,22.1-64.4,26.7s-47.4,4.3-69.7-0.3c-5.6-1.2-11.1-2.6-16.5-4.3h2.7v-57H13.3z"/>
</g>
</svg>
